/* XPM */
static char *collectible[] = {
/* columns rows colors chars-per-pixel */
"32 32 183 2 ",
"   c #060D1C",
".  c #0B131E",
"X  c #16181D",
"o  c #111720",
"O  c #121820",
"+  c #1D1F23",
"@  c #19252D",
"#  c #1A2428",
"$  c #1B2730",
"%  c #1E363D",
"&  c #252625",
"*  c #262826",
"=  c #2A2925",
"-  c #232B2D",
";  c #2B2C2A",
":  c #322D26",
">  c #332E2A",
",  c #392F23",
"<  c #2E312E",
"1  c #34322A",
"2  c #3B342B",
"3  c #3D382E",
"4  c #212E33",
"5  c #2C3434",
"6  c #20353C",
"7  c #2C3A3D",
"8  c #253538",
"9  c #353B37",
"0  c #4E2E1C",
"q  c #53331F",
"w  c #6F391C",
"e  c #452F20",
"r  c #473A2B",
"t  c #503727",
"y  c #553A25",
"u  c #593A25",
"i  c #593B27",
"p  c #443C33",
"a  c #503C30",
"s  c #36433F",
"d  c #4E402A",
"f  c #4A483B",
"g  c #554933",
"h  c #5A4B33",
"j  c #63422B",
"k  c #704428",
"l  c #704324",
"z  c #624E33",
"x  c #645235",
"c  c #685939",
"v  c #765E39",
"b  c #735D37",
"n  c #7D633A",
"m  c #77613B",
"M  c #26434C",
"N  c #2E444C",
"B  c #374540",
"V  c #32474C",
"C  c #364A4C",
"Z  c #3B4D4E",
"A  c #3C4846",
"S  c #2F4F59",
"D  c #2F4B51",
"F  c #344D54",
"G  c #394E51",
"H  c #344F58",
"J  c #2E515B",
"K  c #375056",
"L  c #385057",
"P  c #35545C",
"I  c #3B555A",
"U  c #385760",
"Y  c #3C5C63",
"T  c #3C5F69",
"R  c #365761",
"E  c #3E626B",
"W  c #3F6871",
"Q  c #405B5E",
"!  c #6A5E41",
"~  c #56664C",
"^  c #42656C",
"/  c #44696F",
"(  c #446770",
")  c #446972",
"_  c #486D76",
"`  c #476E78",
"'  c #48717A",
"]  c #8B461E",
"[  c #85441E",
"{  c #93491D",
"}  c #A74819",
"|  c #AB4B1B",
" . c #B14F1D",
".. c #AD501E",
"X. c #B7521C",
"o. c #BC531B",
"O. c #874722",
"+. c #854922",
"@. c #8D4A22",
"#. c #994E22",
"$. c #9A5125",
"%. c #905429",
"&. c #AD5521",
"*. c #A45B27",
"=. c #AE5821",
"-. c #A15626",
";. c #B25622",
":. c #B45A23",
">. c #BC5C23",
",. c #816337",
"<. c #826439",
"1. c #866B3D",
"2. c #8B6D3E",
"3. c #916E3C",
"4. c #BF6024",
"5. c #B4632A",
"6. c #BB6429",
"7. c #B6682A",
"8. c #BD7232",
"9. c #C25E22",
"0. c #C46325",
"q. c #CA6424",
"w. c #CD6926",
"e. c #C66D2E",
"r. c #C86C2B",
"t. c #D16524",
"y. c #D26B26",
"u. c #D16C27",
"i. c #D26C26",
"p. c #D96F26",
"a. c #D36D28",
"s. c #DC7026",
"d. c #C47435",
"f. c #8D7244",
"g. c #947643",
"h. c #967943",
"j. c #9A7944",
"k. c #708461",
"l. c #9E874D",
"z. c #AE8649",
"x. c #AA8347",
"c. c #B2894A",
"v. c #A78F53",
"b. c #B08F52",
"n. c #BF9650",
"m. c #BB9A57",
"M. c #BFA15B",
"N. c #9FA76F",
"B. c #ADA969",
"V. c #CD8941",
"C. c #D08A43",
"Z. c #C5964E",
"A. c #CE9C4F",
"S. c #D99748",
"D. c #DB9C4B",
"F. c #D29647",
"G. c #C49D55",
"H. c #C09F59",
"J. c #D39F50",
"K. c #D6A04E",
"L. c #CCA256",
"P. c #CAA559",
"I. c #D6A453",
"U. c #DFA955",
"Y. c #DCA651",
"T. c #DBB05E",
"R. c #E4AC56",
"E. c #E4AB56",
"W. c #EDB459",
"Q. c #EEBA5B",
"!. c #E9B157",
"~. c #F1B65A",
"^. c #F4B95C",
"/. c #FBBE5E",
"(. c #DFB860",
"). c #D0B266",
"_. c #E0B761",
"`. c #E8B861",
"'. c #F8BF60",
"]. c #FDC15F",
"[. c #EEC467",
"{. c #FEC461",
"}. c #FFCA62",
/* pixels */
") ) ) ) ) ) ) ) ) ) ' ' ' ' ' ' ' ' ' ' ' ` ) ) ) ) ) ) ) ) ) ) ",
") ) ) ) ) ) ) ) ) / / / / / / / / / / / / / / ( ) ) ) ) ) ) ) ) ",
") ) ) ) ) ( ) ' ' Q 7 6 % 6 6 % 6 6 % 6 5 G ) ' ) ) ) ) ) ) ) ) ",
") ) ) ) ) _ E S R C 3 y u y y y y y u y : s P J T ) ) ) ) ) ) ) ",
") ) ) ) ) ) G ; > 5 j 6.w.0.0.0.0.0.w.6.a 3 1 = C ) ) ) ( ) ) ) ",
") ) / _ ) M a @.] +.*.a.p.p.p.p.p.p.p.a.*.@.[ { i M ) ' ) ) ) ) ",
"/ ) ) W J 3 ] q.t.i.i.w.w.w.w.w.w.w.w.w.i.i.q.t.{ r D E ) ( ) ) ",
"/ ) ) P 5 O.9.q.i.i.i.w.w.w.w.w.w.w.w.w.i.i.i.0.9.#.3 5 V / ) ) ",
") ' P p +.>.0.w.w.w.w.w.w.w.w.w.w.w.w.w.w.w.w.w.q.:.$.0 5 ) ) ) ",
"/ Y % e :.q.0.w.w.w.w.w.w.w.w.w.w.w.w.w.w.w.w.i.0.>.t.u 4 P / ) ",
"Y 5 # t :.i.w.w.w.w.w.w.w.w.w.w.w.w.w.w.w.w.w.w.w.w.q.j ; ; P ) ",
"Y - q $.:.q.i.w.w.w.w.w.w.w.w.w.w.w.w.w.w.w.w.w.w.w.>.-.k & K ) ",
"Y 4 w o.X.0.a.w.w.w.w.w.w.w.w.w.w.w.w.w.w.w.w.w.0.>. .o.@.= P ) ",
"Y 4 l e.e.>.>.w.i.w.w.w.w.w.w.w.w.w.w.w.w.w.w.0.;.;.6.r.%.* P ) ",
"Y @ ,.~.R.5.} >.w.i.i.w.w.w.w.w.w.w.w.w.i.0.:.;.} &.Z.^.z.= F ) ",
"U @ 2.[.(.F.d...X.9.4.0.w.i.i.i.i.i.w.0.0.:.} } 6.V.P.[.Z.= F ` ",
"Y - c G.Q.'.E.8.:.=.} ;.0.0.0.0.0.0.>.} ..:.6.5.C.^.W.L.g.= F ` ",
"Y 5 X g I.].^.W.F.7.&.&.;.;.;.;.:.;.;.&.&.8.F.!.~.^.^.v = & P ) ",
"Y 5 + * g Z./.^.R.D.S.S.D.S.S.S.S.S.S.S.D.K.R.^.].U.n ; + & P ) ",
"P 5 n 2.& r m g.R.{.{.].].{.].{.].].].].].{./.x.n x O z <.1 K ` ",
"P 5 l.).n h 1 O v c.c.z.z.z.z.z.z.z.z.z.z.c.j.& & h h m.M.: F ) ",
"P ; ~ N._.Q.c.3 1 3 & & & & & & & & & & & > 3 ; f.W.Q.B.k.< L ) ",
"Y F 7 c W.{.W.L.H.! O . O O O O O O O o   f v.G.U.^.}.1.B Y / ) ",
"/ ) R A b K.]./.`.m.j.g.h.h.h.h.h.g.g.g.g.b.T.^.].R.3.f H ) ) ) ",
"/ ) ' Y 7 n A.~.^.~.~.^.~.~.~.~.~.^.^.^.~.~.~.^.Y.j.9 P ) ) ) ) ",
"/ ) ) ) E 6 x J.U.R.~.~.~.~.~.~.~.~.~.~.~.R.I.R.<.5 T ) ) ) ) ) ",
"/ ) ) ) ) E Z 3 : f.~.^.W.W.W.~.W.W.W.~./.g.1 , A / ) ) ( ) ) ) ",
"/ ) ) ) ) ) E V $ r <.<.<.<.<.n n n n ,.1.d - N Y ) ) ) ) ) ) ) ",
"/ ) ( ) ) ( ` ) Z - @ @ @ @ @ @ @ @ @ @ @ - C ) ) ) ) ) ) ) ) ) ",
"/ ) ) ) ) ) ) ) / / / / / / / / / / / / / / / / ) ) ) ) ) ) ) ) ",
"/ ) ) ) ( ( ( ) ) ) ) ) ) ) ) ) ) ) ) ) ) ) ) ) ) ) ) ) ( ) ) ) ",
"/ ) ) ) ) ) ( ) ) ) ) ) ) ) ( ( ) ) ) ) ) ) ( ) ) ) ) ) ) ) ) ) "
};
