/* XPM */
static char *exit[] = {
/* columns rows colors chars-per-pixel */
"32 32 117 2 ",
"   c #4C2722",
".  c #422B23",
"X  c #4D2E25",
"o  c #512F24",
"O  c #553025",
"+  c #5E3226",
"@  c #563228",
"#  c #623426",
"$  c #62372A",
"%  c #6A392C",
"&  c #703B2D",
"*  c #7C3C29",
"=  c #7F4131",
"-  c #7F4E3F",
";  c #813E2A",
":  c #86412C",
">  c #8B442E",
",  c #894B2F",
"<  c #90472F",
"1  c #814131",
"2  c #8C4432",
"3  c #8D4830",
"4  c #914735",
"5  c #904D30",
"6  c #904835",
"7  c #914835",
"8  c #914935",
"9  c #914836",
"0  c #914936",
"q  c #924833",
"w  c #984935",
"e  c #944F3C",
"r  c #9D5936",
"t  c #9B5C36",
"y  c #97523E",
"u  c #98513C",
"i  c #98513D",
"p  c #99513D",
"a  c #9B513C",
"s  c #9A513D",
"d  c #9B513D",
"f  c #98523D",
"g  c #99523D",
"h  c #9A523D",
"j  c #9B523D",
"k  c #98523E",
"l  c #99523E",
"z  c #98533E",
"x  c #99533E",
"c  c #98533F",
"v  c #9B523E",
"b  c #9D523D",
"n  c #A3543D",
"m  c #A35E38",
"M  c #A46239",
"N  c #A9673C",
"B  c #AF6F3E",
"V  c #AE6E3F",
"C  c #8A5140",
"Z  c #8A5141",
"A  c #895241",
"S  c #8A5240",
"D  c #8A5241",
"F  c #8E5441",
"G  c #8C5341",
"H  c #935541",
"J  c #935641",
"K  c #935642",
"L  c #945641",
"P  c #955741",
"I  c #945642",
"U  c #955642",
"Y  c #915442",
"T  c #9B5641",
"R  c #9E5640",
"E  c #9E5740",
"W  c #9E5641",
"Q  c #9F5641",
"!  c #9E5741",
"~  c #9F5741",
"^  c #995843",
"/  c #9F5841",
"(  c #A15943",
")  c #A45C44",
"_  c #A55C44",
"`  c #A55D44",
"'  c #A55C45",
"]  c #A55D45",
"[  c #A65C44",
"{  c #A65D44",
"}  c #A65C45",
"|  c #A65D45",
" . c #A75D45",
".. c #A45942",
"X. c #A85D44",
"o. c #A85D45",
"O. c #A85E45",
"+. c #A95E45",
"@. c #A85F45",
"#. c #A95F45",
"$. c #A85E46",
"%. c #A95E46",
"&. c #AC5F46",
"*. c #AB6046",
"=. c #B36246",
"-. c #C07F43",
";. c #C18044",
":. c #C28244",
">. c #DFA251",
",. c #E2A553",
"<. c #E2A652",
"1. c #EFB658",
"2. c #F3B959",
"3. c #F4BA5B",
"4. c #F6BC5B",
"5. c #F9C15D",
"6. c #FAC15D",
/* pixels */
"- ^ J J J J J J J J J J J J J J J J J J J J J J J J J J J J J J ",
"F &.| | | | | | | | | | | | | | | | | | | | | | | | | | | | | &.",
"F | T y v v v v v v v v v v v v v v v v v v v v v v v v v v v | ",
"F &.e 2 2 2 2 2 2 2 2 2 2 2 2 2 2 2 2 2 2 2 2 2 2 2 2 2 2 2 2 T ",
"F &.y 1 % + $ $ $ $ $ $ $ $ $ $ $ $ $ $ $ $ $ $ $ $ $ $ $ & 2 T ",
"F &.v = X . o X X X X X X X o o o o o X X o o X X X o X . O q T ",
"F &.v = X + ; * * ; ; * * * * * * * ; * * * * * * * ; * O @ q T ",
"F &.v = X + : > > 3 3 : * * * * * : > : * * > > > > > * o @ 9 T ",
"F &.v 1 X + > 2 > 3 3 : * * : : * ; 2 > * * > > > > 2 * o @ q T ",
"F &.v 1 X + : > > > > : * * > > ; : > > * * > > > > > * o @ q T ",
"F &.v 1 X + : > > > > : * * > > > > > : * * > > > > > * o @ q T ",
"F &.v 1 X + : > > > > : * * > > > > > : * * > > > > > * o @ q ( ",
"F | v = X + : > > > > : * * > > > > > : * * > > > > > * o @ q T ",
"F &.v = X + : > > > > > * * : : : : > > * * > > > > > * o @ q T ",
"F | v = X + : > > > > > * * : * * ; > : * * > > > > > * o @ q T ",
"F | v = X + > > : ; > > * * ; * * : > > * * > : ; ; ; * o @ 9 ^ ",
"F | v = X + : > * * > > * * > : : > > > * * > r B B N : o @ q T ",
"F &.v = X + > > ; * > : * * > > > > > > * * > -.3.1.>., X @ q T ",
"F | v = X + > > ; ; > > * * > > > > > > * * > :.5.3.<.,   @ q T ",
"F | v = X + > > * * > > * * > > > > > > * * > :.5.3.<., X @ q ^ ",
"F &.v 1 X + > > ; * > > * * > > : > > > * * > q r M m : o @ q ^ ",
"F &.v 1 X + > > > > > > * * > > * ; > > * * > * * : > * o @ q T ",
"F &.v 1 X + > > > > > > * * > > * ; > : * * > * * > > * o @ q T ",
"F &.v 1 X + > > > > > > * * > > * ; > > * * > * * > > * o @ q T ",
"F | v = X + > > > > > : * * > > : : > : * * > > > > > * o @ q T ",
"F | v = X + > > > : > > * * > > > > > : * * > > > > > * o @ q T ",
"F | v = X + > > : * > > * * > > > > > : * * > > > > > * o @ q T ",
"F &.v = X + > > : * > > * * > > > > > : * * > > : : > * o @ q T ",
"F &.v = X + > > : ; > > * * > > > > > > * * > > ; ; > * o @ q T ",
"F &.v = X + > 2 : ; > > * * > > > > > > * * > > ; ; > * o @ q T ",
"F *.v 1 X # > q > ; > > * * > > > > > > * * > > : ; < * o @ q | ",
"J =.n 1 o # > > ; ; : : ; ; : : : ; > : * ; : : ; ; > * O + w &."
};
