/* XPM */
static char *path[] = {
/* columns rows colors chars-per-pixel */
"32 32 136 2 ",
"   c #778E46",
".  c #7A9047",
"X  c #849F47",
"o  c #81974B",
"O  c #859C4B",
"+  c #86A147",
"@  c #86A148",
"#  c #8BA44A",
"$  c #8DA84A",
"%  c #93AC4D",
"&  c #98AF4F",
"*  c #96B24C",
"=  c #98B04F",
"-  c #99B44E",
";  c #9BB44E",
":  c #9BB74F",
">  c #9CB74F",
",  c #9AB64E",
"<  c #94AD50",
"1  c #95AE50",
"2  c #96AE50",
"3  c #97AE50",
"4  c #96AF50",
"5  c #97AF50",
"6  c #96AE50",
"7  c #98AF50",
"8  c #97B050",
"9  c #97B050",
"0  c #98B050",
"q  c #99B050",
"w  c #98B150",
"e  c #99B150",
"r  c #98B051",
"t  c #99B051",
"y  c #98B151",
"u  c #99B151",
"i  c #9AB150",
"p  c #9AB151",
"a  c #9AB251",
"s  c #9BB251",
"d  c #9BB351",
"f  c #99B152",
"g  c #9AB252",
"h  c #9BB352",
"j  c #9BB253",
"k  c #9BB353",
"l  c #9CB351",
"z  c #9CB352",
"x  c #9DB352",
"c  c #9CB353",
"v  c #9DB353",
"b  c #9EB751",
"n  c #9CB452",
"m  c #9DB452",
"M  c #9DB453",
"N  c #9DB553",
"B  c #9EB552",
"V  c #9EB453",
"C  c #9EB553",
"Z  c #9FB553",
"A  c #9FB653",
"S  c #9FB554",
"D  c #9FB654",
"F  c #9FB754",
"G  c #9FB655",
"H  c #9DB553",
"J  c #9EB951",
"K  c #9EB852",
"L  c #A0B753",
"P  c #A0B754",
"I  c #A2B754",
"U  c #A0B754",
"Y  c #A0BA51",
"T  c #A1B853",
"R  c #A1B953",
"E  c #A2BB53",
"W  c #A2BD52",
"Q  c #A3BD53",
"!  c #A1B854",
"~  c #A0B855",
"^  c #A1B855",
"/  c #A1B955",
"(  c #A2B854",
")  c #A2B954",
"_  c #A2B855",
"`  c #A2B955",
"'  c #A3B955",
"]  c #A2BA54",
"[  c #A3BA54",
"{  c #A2BA55",
"}  c #A3BA55",
"|  c #A2B856",
" . c #A2B956",
".. c #A3B956",
"X. c #A3BA56",
"o. c #A4B955",
"O. c #A4BA55",
"+. c #A4B956",
"@. c #A4BA56",
"#. c #A5BA56",
"$. c #A4BB56",
"%. c #A5BB56",
"&. c #A5BA57",
"*. c #A4BB57",
"=. c #A5BB57",
"-. c #A4BD54",
";. c #A5BD55",
":. c #A6BD55",
">. c #A5BE55",
",. c #A5BC57",
"<. c #A6BC57",
"1. c #A2B955",
"2. c #A8BF56",
"3. c #A6BB58",
"4. c #A6BC58",
"5. c #A6C054",
"6. c #A9C055",
"7. c #A8C155",
"8. c #AAC355",
"9. c #A9C056",
"0. c #A8C156",
"q. c #AAC056",
"w. c #AAC156",
"e. c #AAC157",
"r. c #ABC157",
"t. c #ABC256",
"y. c #AAC257",
"u. c #ABC257",
"i. c #ACC357",
"p. c #ABC456",
"a. c #ADC557",
"s. c #A9C156",
"d. c #ABC258",
"f. c #B3CB59",
"g. c #B2CA5A",
"h. c #BAD35A",
/* pixels */
"# O O O O . . O O O O O O o     o O O O O O .     o O O O O O & ",
"f.9.9.9.2.& & 9.9.9.9.9.9.~ $ $ ~ 9.9.9.9.~ $ $ $ ~ 9.9.9.9.9.h.",
"b & & & & # # 6 & & & 6 & & @ @ & 8 6 6 6 & # @ # & 6 6 & & & ~ ",
"# X X X X @ O X X X X X X + @ @ O X X X X + @ @ @ X X X X X X $ ",
"& # # # # @ # # # # # # # # # # # # # # @ # # # # # # # # # # * ",
"9.L ~ b b $ ~ ~ L = & ~ ~ ~ ~ b & ~ ~ b $ b L L ~ ~ & b ~ ~ b 9.",
"9.L ~ ~ b & ~ ~ ~ b & ~ ~ L ~ b & ~ ~ b & L L ~ ~ ~ & b ~ ~ b 9.",
"& # # # # # # # # # # # # # # # # # # # # # # # # # # # # # # * ",
"$ X X X X @ X X X X X X X O + X X X X X X X X X X X O X X X X & ",
"& & & & $ # $ & & $ $ & # @ # & & & & & & & & & & & # # & & & = ",
"b ~ ~ ~ L $ b ~ ~ ~ ~ ~ b @ & ~ ~ ~ ~ ~ ~ ~ ~ ~ ~ ~ & b ~ ~ ~ f.",
"= b b b b # b b b b b b 6 @ # b b b b b b b b b b b # & b b b 9.",
"$ X + + @ @ + + + @ + + @ @ O @ @ @ @ + + + + + + + @ @ + + + & ",
"$ + + @ @ @ @ @ @ @ @ # # # # O @ @ # # # # # @ @ @ @ @ # # @ & ",
"~ b b & # b b b & $ b b b b b $ O # b b b b b $ & b b b b L # ~ ",
"d.~ L & $ ~ ~ ~ b & ~ ~ ~ ~ ~ & O # b ~ ~ ~ ~ & b ~ L ~ ~ ~ & ~ ",
"& # # # # # # # # # # # # # # # @ # # # # # # # # # # # # # # * ",
"$ X X X X + X X X X X @ + X X X X X X X @ @ + X X X X X + @ O & ",
"* # # $ # # # $ # $ # @ # $ $ # # $ & # # @ # # # # # $ # @ @ = ",
"9.~ ~ ~ b & b ~ ~ ~ b O b ~ ~ ~ ~ ~ ~ b # @ $ ~ ~ ~ ~ ~ 6 @ # 9.",
"~ b b b b # b b b b & @ & b b b b b b b # @ # b b b b b & @ # 5.",
"& # # # # @ # # # # # @ # # # # # # # # @ @ @ # # # # # @ @ @ & ",
"$ X X X + @ X X X X X X X X X X + @ @ @ X X X X + @ X X X X X & ",
"J & b & # @ & 7 6 6 6 6 6 6 6 6 # @ @ # 6 6 6 b & X # 6 6 8 8 = ",
"9.~ ~ ~ & # L ~ ~ ~ ~ ~ ~ ~ ~ ~ & O O # ~ ~ ~ 4.& O & ~ ~ ~ 4.~ ",
"b & & & # # & & & & & & & & & & # @ @ # & & & & $ @ # & & & & = ",
"$ X + @ X X X + @ + X X X X + @ @ @ O + X @ @ X X X X X X X X & ",
"& @ @ @ # # # # + # # # # # @ @ @ # # # # @ @ @ # # # # # # # * ",
"~ b & & ~ L b & # b L L L L & @ # b L L ~ & @ 6 b b b L L L b 9.",
"9.b 6 & ~ ~ ~ & # L L L ~ ~ & @ # b ~ ~ ~ & O 8 ~ L L L L ~ b d.",
"* $ # # $ $ $ # # # # # $ $ # # # # $ $ $ # # # $ # # # # $ # = ",
"* # $ $ $ $ $ $ $ # $ $ $ $ $ $ $ $ $ $ $ $ $ $ $ $ $ $ $ # # * "
};
