/* XPM */
static char *player[] = {
/* columns rows colors chars-per-pixel */
"32 32 228 2 ",
"   c #1A1B1E",
".  c #231F1C",
"X  c #2A241A",
"o  c #322C1E",
"O  c #191C23",
"+  c #1B2834",
"@  c #19202A",
"#  c #252524",
"$  c #2C2A24",
"%  c #252A2B",
"&  c #2A2A28",
"*  c #3A3527",
"=  c #32342C",
"-  c #3C3A2A",
";  c #383628",
":  c #232D37",
">  c #2A343A",
",  c #313730",
"<  c #333F3A",
"1  c #313831",
"2  c #42381C",
"3  c #763315",
"4  c #423B26",
"5  c #7C3D20",
"6  c #4A0D38",
"7  c #38423A",
"8  c #5B532C",
"9  c #58583A",
"0  c #69552E",
"q  c #776524",
"w  c #766E3B",
"e  c #6D6735",
"r  c #192D46",
"t  c #1D344E",
"y  c #17355B",
"u  c #112F55",
"i  c #243A4D",
"p  c #253748",
"a  c #263D51",
"s  c #1A3D65",
"d  c #0F3668",
"f  c #4D2961",
"g  c #2C424D",
"h  c #3B4E4D",
"j  c #35484E",
"k  c #354C53",
"l  c #354D56",
"z  c #3B5254",
"x  c #385258",
"c  c #2F4A57",
"v  c #1B497F",
"b  c #23466C",
"n  c #3D5C65",
"m  c #3C5F6B",
"M  c #224A77",
"N  c #315673",
"B  c #3E626D",
"V  c #3F6065",
"C  c #396278",
"Z  c #415D5E",
"A  c #5A5D42",
"S  c #4E645A",
"D  c #5E6252",
"F  c #686E46",
"G  c #6A765B",
"H  c #415E62",
"J  c #42646B",
"K  c #446568",
"L  c #436770",
"P  c #446972",
"I  c #476E79",
"U  c #47707A",
"Y  c #49727A",
"T  c #4A7177",
"R  c #795A52",
"E  c #844A1B",
"W  c #8C531F",
"Q  c #8D5224",
"!  c #987F38",
"~  c #897832",
"^  c #A67A35",
"/  c #8F7944",
"(  c #71857C",
")  c #8C8136",
"_  c #93863A",
"`  c #98903F",
"'  c #AE8439",
"]  c #BD9732",
"[  c #AA8B2D",
"{  c #B9AA3B",
"}  c #C19735",
"|  c #D3AF3C",
" . c #968943",
".. c #999343",
"X. c #939D5A",
"o. c #868D57",
"O. c #A49842",
"+. c #AD8E4D",
"@. c #B7A245",
"#. c #BAB247",
"$. c #B9B857",
"%. c #A8A755",
"&. c #9DA96B",
"*. c #ADB770",
"=. c #C09E5E",
"-. c #C8B948",
";. c #D2BC48",
":. c #C2B856",
">. c #C9AD59",
",. c #CBB067",
"<. c #CCC34A",
"1. c #DAC84B",
"2. c #D9C853",
"3. c #DFD553",
"4. c #CECB5E",
"5. c #E4CB4C",
"6. c #E9D34B",
"7. c #F4D948",
"8. c #EDDB53",
"9. c #E4D455",
"0. c #F7DD57",
"q. c #E2CB50",
"w. c #F7E54B",
"e. c #FDE253",
"r. c #FFEC55",
"t. c #FFEB5A",
"y. c #F7E658",
"u. c #FFF456",
"i. c #FFF35A",
"p. c #FFFD5C",
"a. c #EAE553",
"s. c #C6C86A",
"d. c #CBD76E",
"f. c #CDD675",
"g. c #D2C170",
"h. c #E4DB75",
"j. c #FDFB64",
"k. c #FFFD78",
"l. c #E8E165",
"z. c #165398",
"x. c #1B4A80",
"c. c #265684",
"v. c #245E9B",
"b. c #245C95",
"n. c #345A82",
"m. c #2B649B",
"M. c #0B5EBC",
"N. c #1256A4",
"B. c #3B57A2",
"V. c #1565BC",
"C. c #1C6BBD",
"Z. c #1B67BA",
"A. c #1662B5",
"S. c #2465A8",
"D. c #236DB6",
"F. c #226EBB",
"G. c #2572BD",
"H. c #2973BA",
"J. c #2F72B6",
"K. c #327BBA",
"L. c #3876B0",
"P. c #467482",
"I. c #446E8E",
"U. c #6F7B81",
"Y. c #417BAB",
"T. c #6A5585",
"R. c #0A5FC1",
"E. c #1167C5",
"W. c #1469C4",
"Q. c #1C6DC3",
"!. c #176DCB",
"~. c #1D73CD",
"^. c #1A75D5",
"/. c #2473C4",
"(. c #2879C9",
"). c #2A76C1",
"_. c #3C82B8",
"`. c #588681",
"'. c #608B9F",
"]. c #4A88B7",
"[. c #5896B7",
"{. c #548DB4",
"}. c #6B9EB4",
"|. c #639CB8",
" X c #709BA8",
".X c #72A7B7",
"XX c #72A7B4",
"oX c #2981DA",
"OX c #9BBF92",
"+X c #89B3AD",
"@X c #8AAFB2",
"#X c #BBB0A3",
"$X c #B1BB89",
"%X c #C9BC93",
"&X c #D4BC93",
"*X c #B1CC99",
"=X c #9CC1AD",
"-X c #9BC1B1",
";X c #A5C4AC",
":X c #B1CBA7",
">X c #B7D3AB",
",X c #BDD6B1",
"<X c #A3C4B3",
"1X c #C2C58E",
"2X c #DBDE8A",
"3X c #C9D386",
"4X c #E1DB91",
"5X c #DAE79D",
"6X c #DFF68D",
"7X c #EAE68C",
"8X c #F1ED99",
"9X c #EDF19D",
"0X c #EBFA97",
"qX c #F8FC98",
"wX c #F0F095",
"eX c #C6DCA5",
"rX c #C0D6B2",
"tX c #D7E5AA",
"yX c #ECF3A6",
"uX c #EBF4A8",
"iX c #F4FBA6",
"pX c #FDFEA5",
"aX c #FFFFAA",
"sX c #F4F7A7",
"dX c #FEFEB3",
"fX c #FFFFBB",
"gX c #EAF0AB",
"hX c #E7F6C0",
/* pixels */
"L L L L L J I J < = 1 , , , , , , , , = , = < J U J L L L L L L ",
"L L L L L L H l a i i i i i i i i i i i i p i l H L L L L L L L ",
"L L L L L L 7 p D./.D.D.D.D.D.D.D.D.D.D.D.G.S.p 7 U L L L L L J ",
"L L L I J < c b././.Q.W.W.E.Q./.W.E.W.W.Q././.v.N Z L L L L L J ",
"L L L L z X c.(.Q.C.{.}.}.}.].).[.}.}.}.].C.D.(.v.c J L L L L J ",
"L L L j $ > S./.C.D.;XsXsXpX:XY.:XpXuXpX>XH.C.G./.v.g z L L L J ",
"L L L = : v.G.Q.K.;XyXpX>X5Xf.h $.7X+XtXiX=XK.C.(.S.# 7 U L L J ",
"L L L j c.(.Q.R.K.yXpXpX@XU. .) [ R B.,XpXtXK.R./.S.i x Y L L J ",
"L H l m./.G.H.C.].tXaXaX#Xf 0 a.! 6 T.tXaXeX_.C.H.G.G.n.z J L J ",
"I h # b.^.).OXeXrXsXaXpX4X%X,.} ,.&X%X9XpXuX,X,X.X~.~.b $ V L J ",
"L h # v.V.b.X.s.7XaXaX0X6X7X=.E +.7X0X0X0XaXpX2X( z.C.b $ K L J ",
"L h # S.b.= ; 1 &.aXpXiX9X/ 3 5 5 ^ 8XiX0XaX5XF X p S.M $ H L J ",
"I h # N.'.-.-.$.2XaXaXaXaX>.W E ] 9.pXdXaXsX3X$.{ %.S.d $ H L J ",
"I h # N. X9.9.t.h.9XpXpXpXk.;.Q 1.j.pXdX9X*.%.2.3.s.L.d $ H L J ",
"L h & S.m.- $ @.1.X.o.3XqXj.1.Q | u.k.qX*.w -.w . h H.b $ H L J ",
"L K x N.I. ._ 2.0...9 :.j.u.e.5.7.r.r.9.-.1.0.@._ o.J.b.z J L J ",
"L L L u D 9.u.t.t.y.2.;.-.-.;.1.1.q.e.q.q.t.t.t.r.:.n.c.T L L J ",
"L L L < O 9 3.t.t.t.p.@.= $ = ; & 0 9.u.t.0.8.t. .# # l U L L J ",
"L L L n a S  .1.u.r.u.9.O.` ...._ O.8.u.u.6._ ~ 8 + j H L L L J ",
"L L L I Y P.y / 1.l.:.-.u.p.p.p.p.p.y.-.#.4.o.r r N P.T L L L J ",
"L L L n Z C G.s 9 *XK 8 6.r.e.e.e.r.8.e < `.[.K.C.S.B K L L L J ",
"L U L >   t /.N.z.XX*X1Xh.^ } u.] ' 7X1X$X;XK.!.oXS.+ & m U L J ",
"L B H F q A N D.!.H.<XhX8X+.' | +.+.yXfXgX-X_.C.S.N 8 8 S B J J ",
"L i 4 q.j.<.2 v /.Q.V.+XpXdX,.E g.dXaXpX=XV.Q.D.y q a.a.) + n J ",
"L p 4 6.p.1.2 x./.Q.V.+XaXdX7Xg.wXdXaXpX;XV.Q./.y q u.p.! O n L ",
"L g 7 O.-.O.- s S.Q.C.}.tXpXaXdXaXpXpXyXXXQ.D.v.t 8 <.1.w % n J ",
"L L n & O # & X b /./.M.[.yXiXyXyXsXiX+XC./.S.p X & # $ h L L J ",
"L L J z l l z % y z.C.W.H.|..X|.|.|.[._.Q.!.S.a < z l j n L L J ",
"L L L Y U U L 7 o > m.).H.V.M.M.M.V.Z.D.K.H.M % j P.Y Y L L L J ",
"L L L L L l 7 %.<.-.s.d.d.G t p a &.d.d.d.s.$.#.w g B L L L L J ",
"L L L L Y c - -.y.8.7.w.6.e   . # { w.7.7.7.w.r.~ @ m I L L L J ",
"L L L L L n > ; * * * * * $ # # # ; - - - - 4 4 7 l J L L L L J "
};
