/* XPM */
static char *wall[] = {
/* columns rows colors chars-per-pixel */
"32 32 143 2 ",
"   c #1A3E2F",
".  c #1F3C32",
"X  c #203D32",
"o  c #1D4431",
"O  c #1F4931",
"+  c #234433",
"@  c #224C32",
"#  c #294D34",
"$  c #255333",
"%  c #2A5334",
"&  c #275933",
"*  c #2A5B35",
"=  c #305E37",
"-  c #2D6335",
";  c #2F6836",
":  c #306737",
">  c #326C37",
",  c #336E38",
"<  c #367237",
"1  c #397636",
"2  c #3D7C35",
"3  c #3E7C35",
"4  c #3E7D35",
"5  c #3F7D35",
"6  c #3F7E35",
"7  c #3F7F35",
"8  c #3C7C36",
"9  c #3D7C36",
"0  c #3C7D37",
"q  c #3E7C36",
"w  c #3E7E36",
"e  c #3C7A36",
"r  c #347038",
"t  c #357038",
"y  c #357138",
"u  c #367138",
"i  c #357238",
"p  c #357338",
"a  c #367238",
"s  c #367338",
"d  c #367438",
"f  c #367238",
"g  c #387839",
"h  c #407F35",
"j  c #407F36",
"k  c #3F8035",
"l  c #438233",
"z  c #418134",
"x  c #408035",
"c  c #418135",
"v  c #428135",
"b  c #438334",
"n  c #428335",
"m  c #438335",
"M  c #448534",
"N  c #458535",
"B  c #458634",
"V  c #458734",
"C  c #458635",
"Z  c #468634",
"A  c #468734",
"S  c #468735",
"D  c #438435",
"F  c #468834",
"G  c #478834",
"H  c #478934",
"J  c #478834",
"K  c #498A33",
"L  c #498C33",
"P  c #4C8E33",
"I  c #4C8F33",
"U  c #498934",
"Y  c #488935",
"T  c #488A34",
"R  c #488B34",
"E  c #498B34",
"W  c #4A8B34",
"Q  c #498C34",
"!  c #4A8C34",
"~  c #4A8D34",
"^  c #4B8D34",
"/  c #4B8D35",
"(  c #4A8D34",
")  c #4D9033",
"_  c #4D9133",
"`  c #4E9133",
"'  c #4E9233",
"]  c #4F9233",
"[  c #4F9333",
"{  c #4D9034",
"}  c #4E9233",
"|  c #519532",
" . c #509433",
".. c #519433",
"X. c #519533",
"o. c #519633",
"O. c #529632",
"+. c #529732",
"@. c #529633",
"#. c #529733",
"$. c #529634",
"%. c #519633",
"&. c #539832",
"*. c #539833",
"=. c #539933",
"-. c #549933",
";. c #559A32",
":. c #559B32",
">. c #559A33",
",. c #559B33",
"<. c #569B32",
"1. c #569A33",
"2. c #579D31",
"3. c #569C32",
"4. c #579C32",
"5. c #579D32",
"6. c #579E32",
"7. c #559B32",
"8. c #589F31",
"9. c #599F31",
"0. c #589E32",
"q. c #599F32",
"w. c #589E32",
"e. c #59A031",
"r. c #5AA031",
"t. c #5AA131",
"y. c #5BA131",
"u. c #5BA231",
"i. c #59A032",
"p. c #5AA032",
"a. c #5AA132",
"s. c #5BA232",
"d. c #5CA231",
"f. c #5CA331",
"g. c #5DA331",
"h. c #5CA332",
"j. c #5CA431",
"k. c #5DA431",
"l. c #5DA531",
"z. c #5FA631",
"x. c #5FA731",
"c. c #5DA432",
"v. c #5BA231",
/* pixels */
"% = = = = & + % = = & & & = % . @ & = = = = = + + & = = = = & + ",
"- d d d d ; O - d < e e < d - O $ ; > < < < d $ $ < e < < d - + ",
"- , , E O.e > > , m s.9.m e < > > < E 5.O.e > > > m 5.j , d > + ",
"> > , e m 5.e , > e 5.s.s.9.e , e 5.s.5.m < > > e m e 1 > < > + ",
"> > > , > E m , < e e m e e < > 1 m m e e e > < E E - > < d < # ",
"< < > > < < , > m 9.O.> 1 E G E O.m > > [ 9.m > < > $ - d > > & ",
"& & - E 5.[ e 1 O.5.[ < e s.s.s.5.m < > m s.O.< < E O.e & @ $ @ ",
"O $ - O.s.s.9.9.s.m < < e 5.s.E < < d > e O.5.5.5.s.s.E & O @ + ",
"O & > 1 e 9.s.s.s.[ E [ e < e e < d < m m E s.s.s.5.e 1 < & O X ",
"O & d > m 9.s.s.s.s.s.s.G < < m e > < O.s.9.s.s.s.5.e , > & O + ",
"& > 1 < 5.s.5.e [ s.s.s.s.E > 1 e e e 5.s.5.j m s.s.E > - - - # ",
"- e [ O.s.5.E > e O.s.5.E e > k s.9.5.9.s.5.1 < O.s.[ > E E > @ ",
"$ - m s.s.E > < > [ s.O.< 1 < E s.s.s.s.s.E > < < [ 5.E 5.m & + ",
"$ & 1 [ 5.m < < < e E s.5.O.< G 9.s.s.s.s.E < > > m 5.5.e $ @ + ",
"& - d < < 1 O.e d < E s.s.5.< < 1 O.s.5.e < < 1 E e < 1 , $ O X ",
"d d < d > < O.e , e 9.s.s.5.< , < O.s.O.< , < G 5.j , > - - & + ",
"& $ - d > > < d d < e E s.s.O.m < e e e e < e 9.G < , > > d - @ ",
"@ $ - d m e , d d d , < 5.s.s.[ > , 1 [ s.[ E e e [ E O.m - @ + ",
"& > , 1 9.O.E [ m > d < [ 5.O.m > < 5.s.s.s.5.< 1 s.s.s.E - $ + ",
"e 5.m < 9.9.[ 5.E < < > < < > < E E 9.s.s.s.9.1 < e E s.5.E < + ",
"> [ E E 9.E - > E O.e e m e , 1 s.s.s.s.5.O.E < < > 1 5.5.[ > @ ",
"O @ e s.[ < - - m 5.5.5.[ 1 - > E 5.9.s.O.< > , > : > j < > $ X ",
"O O > m 1 , - > < m s.5.e > - : < < 1 e e < m e < < > > , & O X ",
"O O - > , d > m O.5.5.e < , > d d , > , d < E E m m < , , @ O X ",
"O O O O $ , < [ s.s.E > d d d d d d - & - > < 5.s.E > $ @ O O . ",
"- > & O @ - - E 5.O.1 d d d > > d d & @ $ - - m [ m - O O - - # ",
"> d - O O @ & d e < < d d d & $ > d > - & , > > 1 < & @ @ > g = ",
"- , > - : - & - > d d d > $ & > , d d d > d & @ & & $ @ @ - > # ",
"& > d d d > O   - d d d - O - d d d d d d d - $ O O - - - , - + ",
"$ - : > > > O   - d d d - @ - d d d d d < d d d $ @ > d d d > % ",
"& & $ $ $ - O O - > > > & @ - > > - & & > d d d & $ > > > > > % ",
"$ % $ @ @ $ @ + & $ O @ @ @ % & $ @ @ $ & - > > - : - @ O O O X "
};
